<svg width="250.1851mm" height="100mm" viewBox="0 0 250.1851 99.999999" xml:space="preserve" xmlns="http://www.w3.org/2000/svg"><path style="fill:#fff200;fill-opacity:1;stroke-width:.254" d="M119.92994 104.97171H-6.0120957L25.473417 50.437215 56.958924-4.09729l31.485505 54.534503Z" transform="matrix(.73446 0 0 .91685 4.4156729 3.75661)"/><g style="font-size:52.9167px;-inkscape-font-specification:sans-serif;text-align:center;text-anchor:middle;stroke-width:.190092"><path d="M48.998533 381.17531c7.234705 0 12.221483-2.91972 14.960336-8.73332l-9.043381-4.83175c-.981853 2.79053-3.126426 4.15996-6.459558 4.08244-4.857588-.0775-7.286382-3.22978-7.286382-9.43095 0-6.33037 2.713015-9.6635 7.286382-9.6635 3.333132 0 5.503543 1.47278 6.511234 4.44418l9.430955-3.97909c-2.583823-6.64043-7.725632-9.94772-15.399586-9.94772-5.71025 0-10.283617 1.73116-13.694263 5.21932-3.436485 3.48816-5.141808 8.13904-5.141808 13.92681 0 5.76192 1.705323 10.33529 5.11597 13.77178 3.384808 3.43648 7.958175 5.1418 13.720101 5.1418z" style="font-weight:800;font-family:'JT Leonor';-inkscape-font-specification:'JT Leonor, Ultra-Bold'" transform="translate(-1.1665749 -296.7019)" aria-label="C"/></g><g style="font-size:24.3967px;-inkscape-font-specification:sans-serif;text-align:center;text-anchor:middle;stroke-width:.226341"><path d="M101.01655 366.69204c3.33548 0 5.63459-1.34611 6.89731-4.02641l-4.16936-2.22763c-.45268 1.28655-1.44141 1.91791-2.97812 1.88217-2.239536-.0357-3.359306-1.48906-3.359306-4.34805 0-2.91855 1.250807-4.45525 3.359306-4.45525 1.53671 0 2.53736.67901 3.00194 2.04894l4.34805-1.83452c-1.19125-3.0615-3.56183-4.58629-7.09982-4.58629-2.632655 0-4.741159.79813-6.313603 2.40631-1.584356 1.60818-2.370578 3.75242-2.370578 6.42081 0 2.65648.786222 4.76498 2.358666 6.34934 1.560531 1.58436 3.669035 2.37058 6.325515 2.37058zm20.13204-1.91791c1.23889-1.22698 1.85834-2.84707 1.85834-4.84836 0-2.03703-.60753-3.66904-1.83452-4.90793-1.22698-1.22699-2.8709-1.84643-4.91984-1.84643-2.03703 0-3.65712.61944-4.8841 1.84643-1.22699 1.23889-1.84643 2.8709-1.84643 4.8841 0 2.0132.61944 3.64521 1.85834 4.87219 1.22698 1.2389 2.85899 1.85835 4.87219 1.85835 2.01321 0 3.64521-.61945 4.89602-1.85835zm-4.89602-1.9179c-1.53671 0-2.2991-.98874-2.28719-2.97811 0-1.95365.77431-2.93047 2.32293-2.93047 1.5367 0 2.31101.97682 2.31101 2.93047 0 1.98937-.78622 2.97811-2.34675 2.97811zm18.16649-9.68482c-1.58436 0-2.81134.72665-3.70477 2.16806v-1.87025h-4.81263v12.92501h4.81263v-6.73054c.13103-1.38184.71474-2.07277 1.77495-2.07277 1.10786 0 1.66774.69093 1.66774 1.77496v7.02835h4.80072v-7.02835c0-1.88217-.40502-3.38314-1.20316-4.51482-.81004-1.11977-1.9179-1.67965-3.33548-1.67965zm20.14395-1.70349h4.81263v-3.64521h-4.81263zm-2.21572-2.83516c-1.16742-.41693-2.40631-.65518-3.70477-.70283-1.90599-.0834-3.27592.33355-4.10979 1.26272-.84579.92917-1.27464 2.34675-1.31037 4.25274h-2.02512v3.8239h2.02512v9.12494h4.80072v-9.12494h3.56182v-3.8239h-3.56182v-.22633c0-.77431.10721-1.21507.51223-1.5248.40502-.30972 1.17933-.2859 2.41823.0834zm7.02835 17.76147v-12.94884h-4.81263v12.94884zm12.31748-11.41213c-1.13169-1.20316-2.35867-1.81069-3.68095-1.81069-1.36993 0-2.62074.59562-3.75242 1.79878-1.13169 1.20315-1.69157 2.85898-1.69157 4.95558 0 2.14424.73857 4.00258 1.81069 5.0747s2.43014 1.69157 3.80007 1.69157c1.38185 0 2.54927-.60754 3.51418-1.8107v1.51289h4.80071v-17.10628h-4.80071zm-2.32293 7.89795c-1.56053 0-2.34675-.98873-2.33484-2.97811 0-1.95364.77431-2.93046 2.32293-2.93046 1.5367 0 2.31101.97682 2.31101 2.93046 0 1.98938-.7624 2.97811-2.2991 2.97811zm16.33197.41694c-1.77495 0-2.7756-.73857-3.02576-2.21572h8.42211c.30972-2.31101-.13104-4.217-1.31037-5.71797-1.19125-1.48906-2.83517-2.23954-4.93176-2.23954-2.03703 0-3.6333.65518-4.80072 1.96555-1.17933 1.32228-1.76304 2.94238-1.76304 4.8841 0 2.0013.63136 3.60948 1.90599 4.82455 1.26272 1.22698 2.91855 1.83452 4.96749 1.83452 1.17934 0 2.23955-.20252 3.20445-.60754.953-.40502 1.87026-1.13168 2.75178-2.16807l-2.19189-2.09659c-.91726 1.02447-1.98938 1.53671-3.22828 1.53671zm-.75048-6.86157c1.33419.0357 2.04894.61944 2.23954 2.04894h-4.58629c.20251-1.39376 1.14359-2.10851 2.34675-2.04894zm17.5113-3.26401c-1.58435 0-2.81134.72665-3.70477 2.16806v-1.87025h-4.81263v12.92501h4.81263v-6.73054c.13104-1.38184.71475-2.07277 1.77495-2.07277 1.10786 0 1.66775.69093 1.66775 1.77496v7.02835h4.80071v-7.02835c0-1.88217-.40502-3.38314-1.20315-4.51482-.81005-1.11977-1.91791-1.67965-3.33549-1.67965zm16.58213 9.33936c-.48841.22633-.94108.34546-1.38184.34546-.82196 0-1.53671-.53606-1.53671-1.53671v-4.05023h3.50226v-3.8239h-3.50226v-3.02576h-4.81263v3.02576h-2.07277v3.8239h2.07277v3.56182c0 1.96556.3812 3.43079 1.14359 4.37187.75049.953 2.06086 1.4295 3.90729 1.4295 1.64392 0 2.9662-.34547 3.97876-1.0483zm8.87477-11.04285v-3.64521h-4.81263v3.64521zm0 14.92631v-12.94884h-4.81263v12.94884zm9.33937-13.24665c-2.19189 0-4.22892.63136-6.09917 1.90599l1.79878 2.72795c.41693-.34546.96491-.64327 1.64392-.89343.67901-.25016 1.27463-.36929 1.79878-.36929 1.36993 0 1.85834.90535 1.95364 2.70413-.8577-.51223-1.88217-.7624-3.07341-.7624-1.08404 0-2.19189.29781-3.26401.88153-1.07213.58371-1.8107 1.7273-1.8107 3.12106 0 1.19124.45268 2.19189 1.34611 3.01385.89343.82196 1.97747 1.23889 3.26401 1.23889 1.46523-.0119 2.64457-.55988 3.56182-1.66774v1.34611h4.56247v-6.05153c0-2.54926-.40502-4.38378-1.21507-5.51546-.82196-1.11977-2.31101-1.67966-4.46717-1.67966zm1.09595 9.00581c0 .39311-.21442.71475-.65519.96491-.44076.26208-.91725.39311-1.41758.39311-1.01256 0-1.66774-.64327-1.66774-1.35802 0-.67901.67901-1.17933 1.97747-1.17933.70283 0 1.29845.15486 1.76304.46459zm12.99648 4.24084v-17.08246h-4.83645v17.08246z" style="font-weight:800;font-family:'JT Leonor';-inkscape-font-specification:'JT Leonor, Ultra-Bold';text-align:start;text-anchor:start" transform="translate(-1.1665749 -296.7019)" aria-label="Confidential"/></g></svg>