<svg viewBox="0 0 301 301" xmlns="http://www.w3.org/2000/svg" xml:space="preserve" style="fill-rule:evenodd;clip-rule:evenodd;stroke-linejoin:round;stroke-miterlimit:2"><g transform="translate(-4.99995 -4.99996)"><path style="fill:none" d="M5 5h300.007v300H5z"/><clipPath id="a"><path d="M5 5h300.007v300H5z"/></clipPath><g clip-path="url(#a)"><path d="M70.91 160.495c0-2.188 1.774-3.961 3.961-3.961 2.189 0 3.962 1.773 3.962 3.961H70.91Zm0 7.922c0-2.187 1.774-3.961 3.961-3.961-2.187 0-3.961-1.773-3.961-3.961-2.188 0-3.961 1.773-3.961 3.961 0 2.188 1.773 3.961 3.961 3.961m0 0c0 2.188 1.774 3.962 3.961 3.962 2.189 0 3.962-1.774 3.962-3.962H70.91Zm3.961-3.961c2.189 0 3.962 1.774 3.962 3.961 2.188 0 3.961-1.773 3.961-3.961 0-2.188-1.773-3.961-3.961-3.961 0 2.188-1.773 3.961-3.962 3.961" style="fill:#fff;fill-rule:nonzero" transform="translate(-1261.57 -2957.71) scale(18.9334)"/></g></g></svg>