<svg width="242.79939mm" height="99.999992mm" viewBox="0 0 242.79939 99.999991" xml:space="preserve" xmlns="http://www.w3.org/2000/svg"><path style="fill:#009d97;fill-opacity:1;stroke-width:.254" d="M119.92994 104.97171H-6.0120957L25.473417 50.437215 56.958924-4.09729l31.485505 54.534503Z" transform="matrix(.73446 0 0 .91685 4.4156729 3.756601)"/><g style="font-size:42.3878px;-inkscape-font-specification:sans-serif;text-align:center;text-anchor:middle;fill:#fff;stroke-width:.190092"><path d="M25.057338 150.84964v29.67973h8.361656V170.1394h4.408496c3.270153 0 5.91939-.88998 7.927016-2.64924 2.007625-1.75926 3.001089-4.09804 3.001089-6.97495 0-2.8769-1.014161-5.21568-3.021787-6.99564-2.007625-1.77996-4.656862-2.66993-7.906318-2.66993zm8.361656 12.52178v-5.8573h4.408496c.972767 0 1.717865.28976 2.255992.88998.517429.60022.786492 1.26253.786492 1.98693 0 .7244-.248366 1.40741-.765795 2.02832-.517429.64161-1.283224.95207-2.276689.95207zm35.909584-5.77451c-2.876906-.10348-5.132897 1.13835-6.747276 3.72549v-3.24945h-8.361656v22.45642h8.361656v-10.26579c.269063-3.04249 1.345315-4.32571 3.72549-4.32571.683006 0 1.262527.20697 1.738562.60022l4.96732-8.09259c-1.014161-.51743-2.255991-.7865-3.684096-.84859z" style="font-weight:800;font-family:'JT Leonor';-inkscape-font-specification:'JT Leonor, Ultra-Bold'" transform="translate(-1.1665739 -96.701909)" aria-label="Pr"/></g><g style="font-size:24.3967px;-inkscape-font-specification:sans-serif;text-align:center;text-anchor:middle;stroke-width:.226341"><path d="M93.666564 149.31179v17.08245h4.81263v-5.98005h2.537356c1.88216 0 3.40696-.51223 4.56247-1.52479 1.1555-1.01256 1.7273-2.35867 1.7273-4.0145s-.58371-3.00194-1.73922-4.02641c-1.15551-1.02447-2.6803-1.5367-4.55055-1.5367zm4.81263 7.20703v-3.37122h2.537356c.55988 0 .98873.16677 1.29845.51223.29781.34546.45268.72666.45268 1.1436 0 .41693-.14295.81004-.44076 1.16742-.29782.36928-.73858.54797-1.31037.54797zm20.668106-3.32357c-1.65583-.0596-2.95429.65518-3.88346 2.14424v-1.87026h-4.81263v12.92501h4.81263v-5.90857c.15486-1.75113.77431-2.48971 2.14424-2.48971.39311 0 .72666.11913 1.00064.34546l2.85899-4.65776c-.58371-.29782-1.29845-.45268-2.12041-.48841zm14.3545 11.5789c1.23889-1.22698 1.85834-2.84708 1.85834-4.84837 0-2.03703-.60753-3.66903-1.83452-4.90793-1.22698-1.22698-2.8709-1.84643-4.91984-1.84643-2.03703 0-3.65712.61945-4.8841 1.84643-1.22699 1.2389-1.84643 2.8709-1.84643 4.88411 0 2.0132.61944 3.64521 1.85834 4.87219 1.22698 1.23889 2.85899 1.85834 4.87219 1.85834 2.01321 0 3.64521-.61945 4.89602-1.85834zm-4.89602-1.91791c-1.5367 0-2.2991-.98873-2.28719-2.97811 0-1.95364.77431-2.93046 2.32293-2.93046 1.53671 0 2.31101.97682 2.31101 2.93046 0 1.98938-.78622 2.97811-2.34675 2.97811zm14.46172 8.42211v-6.34934c.22633.53606.67901.953 1.35802 1.25081.67901.30972 1.36993.45267 2.08468.45267 1.33419 0 2.70412-.5718 3.81198-1.66774 1.09595-1.08404 1.87025-2.91855 1.87025-5.06279 0-2.08468-.58371-3.7286-1.75113-4.93176-1.17933-1.20316-2.46587-1.79878-3.88345-1.79878-.79814 0-1.53671.1906-2.1919.58371-.66709.39311-1.09594.84578-1.29845 1.36993v-1.67965h-4.81263v17.83294zm.0238-11.32874c-.0119-1.98938.75049-2.97812 2.28719-2.97812 1.56053 0 2.34676.98874 2.34676 2.97812 0 1.95364-.77431 2.93046-2.31102 2.93046-1.54862 0-2.32293-.97682-2.32293-2.93046zm20.69195-6.75436c-1.65583-.0596-2.95429.65518-3.88346 2.14424v-1.87026h-4.81263v12.92501h4.81263v-5.90857c.15486-1.75113.77431-2.48971 2.14424-2.48971.39311 0 .72666.11913 1.00065.34546l2.85899-4.65776c-.58371-.29782-1.29846-.45268-2.12042-.48841zm8.87478-1.72731v-3.64521h-4.81263v3.64521zm0 14.9263v-12.94883h-4.81263v12.94883zm9.74438-3.09724c-1.77495 0-2.7756-.73857-3.02576-2.21571h8.4221c.30973-2.31102-.13103-4.21701-1.31037-5.71798-1.19124-1.48905-2.83516-2.23954-4.93175-2.23954-2.03703 0-3.6333.65519-4.80072 1.96556-1.17933 1.32228-1.76304 2.94237-1.76304 4.8841 0 2.00129.63136 3.60947 1.90599 4.82454 1.26272 1.22699 2.91855 1.83452 4.96749 1.83452 1.17934 0 2.23954-.20251 3.20445-.60753.953-.40503 1.87026-1.13169 2.75178-2.16807l-2.19189-2.09659c-.91726 1.02447-1.98938 1.5367-3.22828 1.5367zm-.75048-6.86157c1.33419.0357 2.04894.61945 2.23954 2.04894h-4.58629c.20251-1.39375 1.14359-2.1085 2.34675-2.04894zm17.04671 6.07535c-.48841.22634-.94108.34546-1.38184.34546-.82196 0-1.53671-.53606-1.53671-1.5367v-4.05024h3.50226v-3.82389h-3.50226v-3.02577h-4.81263v3.02577h-2.07276v3.82389h2.07276v3.56183c0 1.96555.3812 3.43078 1.1436 4.37187.75048.95299 2.06085 1.42949 3.90728 1.42949 1.64392 0 2.9662-.34546 3.97876-1.0483zm9.73247-9.36318c-2.19189 0-4.22892.63136-6.09917 1.90599l1.79878 2.72795c.41693-.34546.96491-.64327 1.64392-.89343.67901-.25017 1.27463-.36929 1.79878-.36929 1.36993 0 1.85834.90535 1.95364 2.70413-.8577-.51224-1.88217-.7624-3.07341-.7624-1.08404 0-2.19189.29781-3.26401.88152-1.07213.58371-1.8107 1.72731-1.8107 3.12106 0 1.19125.45268 2.19189 1.34611 3.01385.89343.82196 1.97747 1.2389 3.26401 1.2389 1.46523-.0119 2.64457-.55989 3.56182-1.66775v1.34611h4.56247v-6.05152c0-2.54927-.40502-4.38379-1.21507-5.51547-.82196-1.11977-2.31101-1.67965-4.46717-1.67965zm1.09595 9.00581c0 .39311-.21442.71475-.65519.96491-.44076.26207-.91725.39311-1.41758.39311-1.01256 0-1.66774-.64327-1.66774-1.35802 0-.67901.67901-1.17933 1.97747-1.17933.70283 0 1.29845.15486 1.76304.46458zm16.85612-8.95816c-1.65583-.0596-2.95429.65518-3.88346 2.14424v-1.87026h-4.81263v12.92501h4.81263v-5.90857c.15486-1.75113.77431-2.48971 2.14424-2.48971.39311 0 .72666.11913 1.00064.34546l2.85899-4.65776c-.58371-.29782-1.29845-.45268-2.12041-.48841zm10.2328 7.02834-2.43014-6.77818h-5.02706l5.36061 12.82971c-.67901 1.67965-1.63201 1.87025-3.19254 1.09594l-1.46523 3.26401c.55988.44076 1.20316.75049 1.92982.953 1.48905.39311 2.82325.22634 4.00258-.4765 1.16742-.70283 2.06085-1.87025 2.6803-3.47843l5.49164-14.18773h-5.00323z" style="font-weight:800;font-family:'JT Leonor';-inkscape-font-specification:'JT Leonor, Ultra-Bold';text-align:start;text-anchor:start" transform="translate(-1.1665739 -96.701909)" aria-label="Proprietary"/></g></svg>