<svg width="171.9203mm" height="100mm" viewBox="0 0 171.9203 99.999999" xml:space="preserve" xmlns="http://www.w3.org/2000/svg"><path style="fill:#30b457;fill-opacity:1;stroke-width:.254" d="M119.92994 104.97171H-6.0120957L25.473417 50.437215 56.958924-4.09729l31.485505 54.534503Z" transform="matrix(.73446 0 0 .91685 4.4156729 3.75660353)"/><g style="font-size:52.9167px;-inkscape-font-specification:sans-serif;text-align:center;text-anchor:middle;fill:#fff;stroke-width:.235649"><path d="M32.624187 43.208825v37.052024h10.438646V67.290057h5.503543c4.082441 0 7.389734-1.111044 9.896043-3.307294 2.506308-2.19625 3.746543-5.11597 3.746543-8.707484 0-3.591514-1.266073-6.511234-3.772381-8.733322-2.506309-2.222088-5.813603-3.333132-9.870205-3.333132zm10.438646 15.63213v-7.31222h5.503543c1.214397 0 2.144573.361736 2.816367 1.111044.645956.749309.981853 1.576132.981853 2.480471 0 .904338-.310059 1.756999-.956014 2.532146-.645956.800985-1.601971 1.188559-2.842206 1.188559z" style="font-weight:800;font-family:'JT Leonor';-inkscape-font-specification:'JT Leonor, Ultra-Bold'" transform="translate(-1.1665762 3.5666247)" aria-label="P"/></g><g style="font-size:24.3967px;-inkscape-font-specification:sans-serif;text-align:center;text-anchor:middle;stroke-width:.226341"><path d="M93.666564 49.043247v17.082455h4.81263v-5.980051h2.537356c1.88216 0 3.40696-.512235 4.56247-1.524793 1.1555-1.012559 1.7273-2.358666 1.7273-4.014496 0-1.655831-.58371-3.001938-1.73922-4.026409-1.15551-1.024471-2.6803-1.536706-4.55055-1.536706zm4.81263 7.207033v-3.371224h2.537356c.55988 0 .98873.166775 1.29845.512236.29781.345461.45268.726659.45268 1.143595 0 .416936-.14295.810047-.44076 1.16742-.29782.369286-.73858.547973-1.31037.547973zm20.227346 3.966846c-.13104 1.381844-.72666 2.072767-1.78687 2.072767-1.09595 0-1.65583-.690923-1.65583-1.774956v-7.314245h-4.81263v7.314245c0 3.776247 1.47714 5.956226 4.30039 5.956226 1.69157-.01191 3.01385-.738572 3.95494-2.179979v1.834518h4.80071v-12.92501h-4.80071zm17.28496-7.314245c-1.32228 0-2.54926.607535-3.68095 1.810693v-5.694152h-4.81263v17.10628h4.81263v-1.512881c.96491 1.203157 2.13233 1.810692 3.51418 1.810692 1.36993 0 2.73986-.619447 3.81198-1.691568 1.07212-1.07212 1.79878-2.930463 1.79878-5.074704 0-2.096591-.55988-3.752422-1.69157-4.95558-1.13168-1.203157-2.38249-1.79878-3.75242-1.79878zm-1.36993 9.708648c-1.53671 0-2.2991-.988734-2.28719-2.978113 0-1.953642.77431-2.930463 2.32293-2.930463 1.5367 0 2.31101.976821 2.31101 2.930463 0 1.989379-.78622 2.978113-2.34675 2.978113zm14.5451 3.514173V49.043247h-4.83646v17.082455zm9.33936-14.926301v-3.64521h-4.81263v3.64521zm0 14.926301V53.176868h-4.81263v12.948834zm8.99391.238249c2.40631 0 4.26465-.976821 5.58694-2.942376l-3.02577-2.203803c-.76239.893434-1.57244 1.346107-2.44205 1.346107-.7624 0-1.35802-.273986-1.78687-.810047-.44076-.53606-.65518-1.226982-.65518-2.096591 0-.857697.21442-1.560531.64327-2.120416.41694-.559886 1.01256-.833872 1.77496-.833872.91725 0 1.69156.452673 2.34675 1.369932l3.07341-2.287191c-1.20316-1.917904-3.02576-2.882813-5.44399-2.882813-2.03703 0-3.65712.643273-4.8841 1.94173-1.22699 1.298457-1.84643 2.894725-1.84643 4.788805 0 1.905992.60753 3.502261 1.83451 4.788805 1.21507 1.298458 2.82325 1.94173 4.82455 1.94173z" style="font-weight:800;font-family:'JT Leonor';-inkscape-font-specification:'JT Leonor, Ultra-Bold';text-align:start;text-anchor:start" transform="translate(-1.1665762 3.5666247)" aria-label="Public"/></g></svg>