<svg width="209.93359mm" height="100mm" viewBox="0 0 209.93359 99.999999" xml:space="preserve" xmlns="http://www.w3.org/2000/svg"><path style="fill:#ee2c5d;fill-opacity:1;stroke-width:.254" d="M119.92994 104.97171H-6.0120957L25.473417 50.437215 56.958924-4.09729l31.485505 54.534503Z" transform="matrix(.73446 0 0 .91685 4.4156729 3.75661)"/><g style="font-size:52.9167px;-inkscape-font-specification:sans-serif;text-align:center;text-anchor:middle;fill:#fcffff;stroke-width:.190092"><path d="M32.268278 274.71576c1.937867 1.98954 4.289146 3.59151 7.079675 4.75423 2.790529 1.16272 5.710249 1.73116 8.733322 1.70532 4.108279-.0775 7.389735-1.26607 9.844367-3.53983 2.454632-2.27377 3.617352-5.21933 3.488161-8.86252-.129191-3.30729-1.705323-5.99447-3.384808-7.54476-.852662-.74931-1.989544-1.44694-3.462323-2.0929-1.47278-.62012-2.661338-1.0852-3.617353-1.36942-.956014-.28422-2.247926-.62012-3.824058-.95602-2.299603-.49093-3.436485-1.31775-3.436485-2.48047 0-1.2144 1.136882-2.04122 2.971397-2.11873 2.868043-.18087 6.304528.8785 10.309454 3.12642l3.875735-7.98401c-4.314985-2.91972-9.043381-4.34082-14.236866-4.23747-4.108279.0775-7.389734 1.2144-9.844366 3.41065-2.454632 2.19624-3.617352 5.03845-3.436485 8.50077.129191 3.10059 1.705323 5.63274 3.35897 7.15719.826824.74931 1.937868 1.44694 3.333132 2.0929 1.395265.64596 2.557985 1.08521 3.462323 1.36943.904338.28422 2.092897.62011 3.539838.95601 2.816367.72347 3.79822 1.39527 3.927411 2.60966.103353 1.2144-.852661 2.04122-2.868044 2.4288-3.539837.67179-7.260543-.85267-11.162116-4.59921z" style="font-weight:800;font-family:'JT Leonor';-inkscape-font-specification:'JT Leonor, Ultra-Bold'" transform="translate(-1.1665744 -196.7019)" aria-label="S"/></g><g style="font-size:24.3967px;-inkscape-font-specification:sans-serif;text-align:center;text-anchor:middle;stroke-width:.226341"><path d="M92.332369 263.71392c.893434.91726 1.977467 1.65584 3.264012 2.1919s2.632652.79813 4.026409.78622c1.89408-.0357 3.40696-.58371 4.53864-1.63201 1.13169-1.04829 1.66775-2.40631 1.60818-4.08597-.0596-1.52479-.78622-2.76369-1.56053-3.47843-.39311-.34547-.91726-.6671-1.59627-.96491-.679-.2859-1.22698-.50033-1.66774-.63136-.44076-.13104-1.036382-.2859-1.763041-.44076-1.060208-.22634-1.584356-.60754-1.584356-1.1436 0-.55988.524148-.94108 1.369932-.97682 1.322285-.0834 2.906635.40502 4.753065 1.44141l1.78687-3.68095c-1.98938-1.34611-4.16936-2.00129-6.56376-1.95364-1.89408.0357-3.406961.55988-4.538644 1.57244-1.131683 1.01256-1.667743 2.32293-1.584356 3.9192.05956 1.42949.786222 2.59691 1.548619 3.29975.381198.34546.893433.66709 1.536706.9649.643272.29782 1.179332.50033 1.596268.63136.416936.13104.964909.2859 1.632006.44076 1.298461.33355 1.751131.64328 1.810691 1.20316.0477.55989-.39311.94109-1.32228 1.11977-1.632006.30973-3.347399-.39311-5.146179-2.12041zm22.657481-.41693c-1.77495 0-2.7756-.73857-3.02576-2.21572h8.4221c.30973-2.31101-.13104-4.217-1.31037-5.71797-1.19124-1.48906-2.83516-2.23954-4.93175-2.23954-2.03703 0-3.6333.65518-4.80072 1.96555-1.17933 1.32228-1.76304 2.94238-1.76304 4.8841 0 2.0013.63136 3.60948 1.90599 4.82455 1.26272 1.22698 2.91855 1.83452 4.96749 1.83452 1.17933 0 2.23954-.20252 3.20445-.60754.953-.40502 1.87026-1.13168 2.75178-2.16807l-2.19189-2.09659c-.91726 1.02447-1.98938 1.53671-3.22828 1.53671zm-.75048-6.86157c1.33419.0357 2.04894.61944 2.23954 2.04894h-4.5863c.20252-1.39376 1.1436-2.10851 2.34676-2.04894zm17.5113-3.26401c-1.58436 0-2.81134.72665-3.70477 2.16806v-1.87025h-4.81263v12.92501h4.81263v-6.73054c.13103-1.38184.71475-2.07277 1.77495-2.07277 1.10786 0 1.66775.69093 1.66775 1.77496v7.02835h4.80071v-7.02835c0-1.88217-.40502-3.38314-1.20315-4.51482-.81005-1.11977-1.91791-1.67965-3.33549-1.67965zm7.56441 11.293c.53606.5718 1.31037 1.06021 2.32293 1.46523 1.01255.40502 2.15615.60754 3.43078.60754 1.78687 0 3.16871-.40503 4.13362-1.22699.96491-.82196 1.45332-1.88216 1.45332-3.20445 0-1.14359-.3812-2.02511-1.14359-2.63265-.7624-.60753-1.92982-1.07212-3.49035-1.39375-.10721-.0357-.26208-.0715-.45268-.10722-.39311-.0715-.54797-.10721-.83387-.16677-.29781-.0596-.39311-.11913-.55988-.21443-.16678-.0953-.22634-.21442-.22634-.34546 0-.36928.52415-.63136 1.39376-.63136.92917 0 1.92981.33355 3.00194 1.00065l1.8226-2.88281c-1.27463-1.03639-2.94238-1.56053-5.02705-1.56053-1.69157 0-3.01385.35737-3.96685 1.08403-.96491.72666-1.44141 1.73922-1.44141 3.03767 0 2.38249 1.70348 3.68095 5.02706 4.16936.5718.0596.79813.13104 1.17933.23825.36929.10721.52415.27399.52415.52415 0 .41693-.58371.70283-1.39376.70283-.61945 0-1.33419-.14295-2.13233-.41693-.81004-.27399-1.40567-.60754-1.79878-.97682zm19.04801-12.99649v-3.64521h-4.81263v3.64521zm0 14.92631v-12.94884h-4.81263v12.94884zm12.57954-3.88346c-.48841.22633-.94108.34546-1.38184.34546-.82196 0-1.53671-.53606-1.53671-1.53671v-4.05023h3.50226v-3.8239h-3.50226v-3.02576h-4.81263v3.02576h-2.07277v3.8239h2.07277v3.56182c0 1.96556.3812 3.43079 1.1436 4.37187.75048.953 2.06085 1.4295 3.90728 1.4295 1.64392 0 2.9662-.34547 3.97876-1.0483zm8.87478-11.04285v-3.64521h-4.81263v3.64521zm0 14.92631v-12.94884h-4.81263v12.94884zm9.92308-6.09918-2.31102-6.84966h-5.20574l5.44399 12.94884h4.31231l5.15809-12.94884h-5.15809zm15.86738 3.00194c-1.77496 0-2.77561-.73857-3.02577-2.21572h8.42211c.30972-2.31101-.13104-4.217-1.31037-5.71797-1.19125-1.48906-2.83517-2.23954-4.93176-2.23954-2.03703 0-3.6333.65518-4.80072 1.96555-1.17933 1.32228-1.76304 2.94238-1.76304 4.8841 0 2.0013.63136 3.60948 1.90599 4.82455 1.26272 1.22698 2.91855 1.83452 4.9675 1.83452 1.17933 0 2.23954-.20252 3.20444-.60754.953-.40502 1.87026-1.13168 2.75178-2.16807l-2.19189-2.09659c-.91726 1.02447-1.98938 1.53671-3.22827 1.53671zm-.75049-6.86157c1.3342.0357 2.04894.61944 2.23954 2.04894h-4.58629c.20251-1.39376 1.14359-2.10851 2.34675-2.04894z" style="font-weight:800;font-family:'JT Leonor';-inkscape-font-specification:'JT Leonor, Ultra-Bold';text-align:start;text-anchor:start" transform="translate(-1.1665744 -196.7019)" aria-label="Sensitive"/></g></svg>